<?xml version="1.0" standalone="no"?>
<!DOCTYPE svg PUBLIC "-//W3C//DTD SVG 20010904//EN" "http://www.w3.org/TR/2001/REC-SVG-20010904/DTD/svg10.dtd">
<!-- Created using Krita: https://krita.org -->
<svg xmlns="http://www.w3.org/2000/svg" 
    xmlns:xlink="http://www.w3.org/1999/xlink"
    xmlns:krita="http://krita.org/namespaces/svg/krita"
    xmlns:sodipodi="http://sodipodi.sourceforge.net/DTD/sodipodi-0.dtd"
    width="11.52pt"
    height="11.52pt"
    viewBox="0 0 11.52 11.52">
<defs/>
<path id="shape0" transform="matrix(0.1 0 0 0.1 1.43999666745992 1.43100003123079)" fill="#e0e0e0" fill-rule="evenodd" stroke-opacity="0" stroke="#000000" stroke-width="0" stroke-linecap="square" stroke-linejoin="bevel" d="M8.63996 0L77.7596 0C82.9194 0.0777542 86.4086 2.20891 86.3996 8.63996L86.3996 12.9599C86.4119 17.7114 85.025 21.5576 77.7596 21.5999L8.63996 21.5999C2.91362 21.62 0.00240166 18.7718 4.26323e-14 12.9599L0 8.63996C0.011578 2.89156 3.01295 0.132961 8.63996 0M15.5519 10.7999C15.5299 7.94686 14.2715 6.09831 10.7999 6.04797C7.32839 6.05899 6.07 7.91432 6.04797 10.7999C6.01518 13.4917 6.96689 15.509 10.7999 15.5519C13.7457 15.4958 15.5546 14.1641 15.5519 10.7999" sodipodi:nodetypes="cccccccccccccc"/><path id="shape01" transform="matrix(0.1 0 0 0.1 1.44001596409243 7.91999965657816)" fill="#e0e0e0" fill-rule="evenodd" stroke-opacity="0" stroke="#000000" stroke-width="0" stroke-linecap="square" stroke-linejoin="bevel" d="M8.63996 0L77.7596 0C82.9194 0.0777542 86.4086 2.20891 86.3996 8.63996L86.3996 12.9599C86.4119 17.7114 85.025 21.5576 77.7596 21.5999L8.63996 21.5999C2.91362 21.62 0.00240166 18.7718 4.26323e-14 12.9599L0 8.63996C0.011578 2.89156 3.01295 0.132961 8.63996 0M15.5519 10.7999C15.5299 7.94686 14.2715 6.09831 10.7999 6.04797C7.32839 6.05899 6.07 7.91432 6.04797 10.7999C6.01518 13.4917 6.96689 15.509 10.7999 15.5519C13.7457 15.4958 15.5546 14.1641 15.5519 10.7999" sodipodi:nodetypes="cccccccccccccc"/><path id="shape02" transform="matrix(0.1 0 0 0.1 1.44001596409243 4.67999971820014)" fill="#e0e0e0" fill-rule="evenodd" stroke-opacity="0" stroke="#000000" stroke-width="0" stroke-linecap="square" stroke-linejoin="bevel" d="M8.63996 0L77.7596 0C82.9194 0.0777542 86.4086 2.20891 86.3996 8.63996L86.3996 12.9599C86.4119 17.7114 85.025 21.5576 77.7596 21.5999L8.63996 21.5999C2.91362 21.62 0.00240166 18.7718 4.26323e-14 12.9599L0 8.63996C0.011578 2.89156 3.01295 0.132961 8.63996 0M15.5519 10.7999C15.5299 7.94686 14.2715 6.09831 10.7999 6.04797C7.32839 6.05899 6.07 7.91432 6.04797 10.7999C6.01518 13.4917 6.96689 15.509 10.7999 15.5519C13.7457 15.4958 15.5546 14.1641 15.5519 10.7999" sodipodi:nodetypes="cccccccccccccc"/>
</svg>
